# xmcd
#
# Track frame offsets: 
#        150
#        70311
#        137037
#        151038
#        158092
#        167918
#        173853
#        184782
#        207163
#        237912
#        250414
#        263876
#
# Disc length: 3973 seconds
#
# Revision: 4
# Processed by: cddbd v1.5.2PL0 Copyright (c) Steve Scherf et al.
# Submitted via: ExactAudioCopy v1.3
#
DISCID=a30f830c
DTITLE=Theodore Kerkezos (sax), Roberto Minczuk, London PO - Ballades 
DTITLE=for Saxophone and Orchestra (NAXOS 2004)
DYEAR=2004
DGENRE=Classical
TTITLE0=Ballade, for alto sax and orchestra - Andantino - Gigue - Blues
TTITLE1=Ballade, for saxophone and orchestra
TTITLE2=Piece En Forme De Habanera, for sax and chamber orchestra
TTITLE3=Tango Suite - 1 Preludio
TTITLE4=Tango Suite - 2 Fuga
TTITLE5=Tango Suite - 3 Misterio
TTITLE6=Tango Suite - 4 Fugata
TTITLE7=Tango Suite - 5 Oblivion
TTITLE8=Tango Suite - 6 Adios nonino
TTITLE9=Tango Suite - 7 Libertango
TTITLE10=Ballade, for saxophone and strings
TTITLE11=Czardas, for saxophone and orchestra
EXTD=Ballads for Saxophone and Orchestra\n\nHenri Tomasi (1901 - 1971)
EXTD=\nBallade for alto saxophone and orchestra\n\nFrank Martin (1890 
EXTD=1974]\nBallade for saxophone and orchestra\n\nMaurice Ravel (18
EXTD=75 - 1937]\nPiece enf forme de habanera for saxophone and chamber
EXTD=orchestra\narr A Hoeree\n\nAstor Piazzolla (1921 - 1992]\nTango 
EXTD=Suite for Saxophone and Orchestra (adapted T Kerkezos]\n\nDimitri
EXTD=s Dragatakis (1914 - 2001]\nBallade for saxophone and strings (Wo
EXTD=rld premiere recording]\n\nPedro Iturralde (b 1929]\nCzardas for 
EXTD=saxophone and orchestra (orch J Iturralde]\n(World premier record
EXTD=ing]\n\nTheodore Kerkezos, Saxophone\nLondon Philharmonic Orchest
EXTD=ra\nconducted by Roberto Minczuk\n\nRecorded at Henry Wood Hall, 
EXTD=London\n8-9 November 2003
EXTT0=
EXTT1=
EXTT2=
EXTT3=
EXTT4=
EXTT5=
EXTT6=
EXTT7=
EXTT8=
EXTT9=
EXTT10=
EXTT11=
PLAYORDER=
